<mxfile host="65bd71144e">
    <diagram id="HIP3nbAZw_EuaXWnEj3U" name="Page-1">
        <mxGraphModel dx="1723" dy="645" grid="1" gridSize="10" guides="1" tooltips="1" connect="1" arrows="1" fold="1" page="1" pageScale="1" pageWidth="850" pageHeight="1100" math="0" shadow="0">
            <root>
                <mxCell id="0"/>
                <mxCell id="1" parent="0"/>
                <mxCell id="7" value="http://ics2o.mths.ca" style="swimlane;whiteSpace=wrap;html=1;labelBorderColor=none;labelBackgroundColor=none;" parent="1" vertex="1">
                    <mxGeometry x="40" y="40" width="760" height="480" as="geometry"/>
                </mxCell>
                <mxCell id="11" value="&lt;font style=&quot;font-size: 34px;&quot;&gt;Test Case&lt;/font&gt;" style="text;html=1;strokeColor=none;fillColor=none;align=center;verticalAlign=middle;whiteSpace=wrap;rounded=0;" parent="7" vertex="1">
                    <mxGeometry y="90" width="190" height="30" as="geometry"/>
                </mxCell>
                <mxCell id="15" value="&lt;div style=&quot;text-align: start;&quot;&gt;&lt;span style=&quot;background-color: initial; font-size: 14px;&quot;&gt;&lt;font color=&quot;#000000&quot; face=&quot;Helvetica, Arial, sans-serif&quot;&gt;fahrenheit to celsius&lt;/font&gt;&lt;/span&gt;&lt;/div&gt;" style="text;html=1;strokeColor=none;fillColor=none;align=center;verticalAlign=middle;whiteSpace=wrap;rounded=0;fontSize=19;" parent="7" vertex="1">
                    <mxGeometry x="20" y="180" width="230" height="30" as="geometry"/>
                </mxCell>
                <mxCell id="17" value="&lt;font color=&quot;#ffffff&quot;&gt;&lt;font style=&quot;font-size: 13px;&quot;&gt;input&amp;nbsp;&lt;/font&gt;&lt;span style=&quot;font-size: 12px;&quot;&gt;fahrenheit&lt;/span&gt;&lt;/font&gt;" style="rounded=1;whiteSpace=wrap;html=1;fontSize=19;fontColor=#E6E6E6;fillColor=default;" parent="7" vertex="1">
                    <mxGeometry x="10" y="230" width="190" height="30" as="geometry"/>
                </mxCell>
                <mxCell id="18" value="calculate" style="rounded=1;whiteSpace=wrap;html=1;fontSize=13;fontColor=#ffffff;fillColor=#d80073;strokeColor=#A50040;" parent="7" vertex="1">
                    <mxGeometry x="200" y="230" width="110" height="30" as="geometry"/>
                </mxCell>
                <mxCell id="22" value="(answer)N&amp;nbsp;&lt;span style=&quot;font-size: 12px;&quot;&gt;fahrenheit &lt;/span&gt;in&amp;nbsp;&lt;span style=&quot;font-size: 12px;&quot;&gt;celsius&amp;nbsp;&lt;/span&gt;is answer&amp;nbsp;" style="rounded=0;whiteSpace=wrap;html=1;fontSize=13;strokeColor=default;glass=0;shadow=0;fillColor=default;" parent="7" vertex="1">
                    <mxGeometry x="30" y="270" width="230" height="60" as="geometry"/>
                </mxCell>
                <mxCell id="14" value="&lt;font color=&quot;#000000&quot; style=&quot;font-size: 24px;&quot;&gt;Formula, (fahrenheit-32) * 5/9 = celsiusr&lt;/font&gt;" style="text;html=1;strokeColor=none;fillColor=none;align=center;verticalAlign=middle;whiteSpace=wrap;rounded=0;fontSize=34;" parent="7" vertex="1">
                    <mxGeometry x="-60" y="150" width="630" height="30" as="geometry"/>
                </mxCell>
                <mxCell id="8" value="" style="rounded=0;whiteSpace=wrap;html=1;fillColor=#0050ef;fontColor=#ffffff;strokeColor=#001DBC;" parent="1" vertex="1">
                    <mxGeometry x="40" y="60" width="760" height="50" as="geometry"/>
                </mxCell>
                <mxCell id="9" value="Test Case" style="text;html=1;strokeColor=none;fillColor=none;align=center;verticalAlign=middle;whiteSpace=wrap;rounded=0;fontColor=#FFFFFF;" parent="1" vertex="1">
                    <mxGeometry x="50" y="70" width="60" height="30" as="geometry"/>
                </mxCell>
                <mxCell id="12" value="" style="endArrow=none;html=1;fontSize=34;startArrow=none;" parent="1" edge="1">
                    <mxGeometry width="50" height="50" relative="1" as="geometry">
                        <mxPoint x="50" y="180" as="sourcePoint"/>
                        <mxPoint x="710" y="180" as="targetPoint"/>
                    </mxGeometry>
                </mxCell>
                <mxCell id="24" value="" style="endArrow=none;html=1;fontSize=34;" edge="1" parent="1">
                    <mxGeometry width="50" height="50" relative="1" as="geometry">
                        <mxPoint x="40" y="180" as="sourcePoint"/>
                        <mxPoint x="710" y="180" as="targetPoint"/>
                    </mxGeometry>
                </mxCell>
            </root>
        </mxGraphModel>
    </diagram>
</mxfile>